<svg id="visual" viewBox="0 0 900 200" width="900" height="200" xmlns="http://www.w3.org/2000/svg"
    xmlns:xlink="http://www.w3.org/1999/xlink" version="1.1">
    <rect x="0" y="0" width="900" height="200" fill="#0f0f10"></rect>
    <path
        d="M0 82L16.7 89C33.3 96 66.7 110 100 123.7C133.3 137.3 166.7 150.7 200 141C233.3 131.3 266.7 98.7 300 91.2C333.3 83.7 366.7 101.3 400 107.5C433.3 113.7 466.7 108.3 500 118.3C533.3 128.3 566.7 153.7 600 143.7C633.3 133.7 666.7 88.3 700 71C733.3 53.7 766.7 64.3 800 76.3C833.3 88.3 866.7 101.7 883.3 108.3L900 115L900 0L883.3 0C866.7 0 833.3 0 800 0C766.7 0 733.3 0 700 0C666.7 0 633.3 0 600 0C566.7 0 533.3 0 500 0C466.7 0 433.3 0 400 0C366.7 0 333.3 0 300 0C266.7 0 233.3 0 200 0C166.7 0 133.3 0 100 0C66.7 0 33.3 0 16.7 0L0 0Z"
        fill="#dd3f31"></path>
    <path
        d="M0 137L16.7 125.7C33.3 114.3 66.7 91.7 100 76.5C133.3 61.3 166.7 53.7 200 58.3C233.3 63 266.7 80 300 86.8C333.3 93.7 366.7 90.3 400 85.2C433.3 80 466.7 73 500 72.7C533.3 72.3 566.7 78.7 600 83C633.3 87.3 666.7 89.7 700 90.7C733.3 91.7 766.7 91.3 800 98C833.3 104.7 866.7 118.3 883.3 125.2L900 132L900 0L883.3 0C866.7 0 833.3 0 800 0C766.7 0 733.3 0 700 0C666.7 0 633.3 0 600 0C566.7 0 533.3 0 500 0C466.7 0 433.3 0 400 0C366.7 0 333.3 0 300 0C266.7 0 233.3 0 200 0C166.7 0 133.3 0 100 0C66.7 0 33.3 0 16.7 0L0 0Z"
        fill="#e7363d"></path>
    <path
        d="M0 35L16.7 49.5C33.3 64 66.7 93 100 94C133.3 95 166.7 68 200 51.5C233.3 35 266.7 29 300 42.5C333.3 56 366.7 89 400 96.2C433.3 103.3 466.7 84.7 500 70.7C533.3 56.7 566.7 47.3 600 46.8C633.3 46.3 666.7 54.7 700 55.5C733.3 56.3 766.7 49.7 800 50.5C833.3 51.3 866.7 59.7 883.3 63.8L900 68L900 0L883.3 0C866.7 0 833.3 0 800 0C766.7 0 733.3 0 700 0C666.7 0 633.3 0 600 0C566.7 0 533.3 0 500 0C466.7 0 433.3 0 400 0C366.7 0 333.3 0 300 0C266.7 0 233.3 0 200 0C166.7 0 133.3 0 100 0C66.7 0 33.3 0 16.7 0L0 0Z"
        fill="#f02a4a"></path>
    <path
        d="M0 71L16.7 71C33.3 71 66.7 71 100 69.5C133.3 68 166.7 65 200 66.2C233.3 67.3 266.7 72.7 300 72.3C333.3 72 366.7 66 400 54.7C433.3 43.3 466.7 26.7 500 29.2C533.3 31.7 566.7 53.3 600 58.8C633.3 64.3 666.7 53.7 700 56.7C733.3 59.7 766.7 76.3 800 74.3C833.3 72.3 866.7 51.7 883.3 41.3L900 31L900 0L883.3 0C866.7 0 833.3 0 800 0C766.7 0 733.3 0 700 0C666.7 0 633.3 0 600 0C566.7 0 533.3 0 500 0C466.7 0 433.3 0 400 0C366.7 0 333.3 0 300 0C266.7 0 233.3 0 200 0C166.7 0 133.3 0 100 0C66.7 0 33.3 0 16.7 0L0 0Z"
        fill="#f81b57"></path>
    <path
        d="M0 29L16.7 33.5C33.3 38 66.7 47 100 48C133.3 49 166.7 42 200 35C233.3 28 266.7 21 300 24.2C333.3 27.3 366.7 40.7 400 46.5C433.3 52.3 466.7 50.7 500 49.8C533.3 49 566.7 49 600 50.5C633.3 52 666.7 55 700 49.3C733.3 43.7 766.7 29.3 800 21.3C833.3 13.3 866.7 11.7 883.3 10.8L900 10L900 0L883.3 0C866.7 0 833.3 0 800 0C766.7 0 733.3 0 700 0C666.7 0 633.3 0 600 0C566.7 0 533.3 0 500 0C466.7 0 433.3 0 400 0C366.7 0 333.3 0 300 0C266.7 0 233.3 0 200 0C166.7 0 133.3 0 100 0C66.7 0 33.3 0 16.7 0L0 0Z"
        fill="#ff0066"></path>
</svg>