<svg id="visual" viewBox="0 0 900 600" width="900" height="600" xmlns="http://www.w3.org/2000/svg"
    xmlns:xlink="http://www.w3.org/1999/xlink" version="1.1">
    <rect x="0" y="0" width="900" height="600" fill="#0f0f10"></rect>
    <path
        d="M0 71L15 82.5C30 94 60 117 90 126C120 135 150 130 180 133.2C210 136.3 240 147.7 270 137.7C300 127.7 330 96.3 360 93.2C390 90 420 115 450 118.8C480 122.7 510 105.3 540 105.3C570 105.3 600 122.7 630 128.2C660 133.7 690 127.3 720 114.7C750 102 780 83 810 82.8C840 82.7 870 101.3 885 110.7L900 120L900 0L885 0C870 0 840 0 810 0C780 0 750 0 720 0C690 0 660 0 630 0C600 0 570 0 540 0C510 0 480 0 450 0C420 0 390 0 360 0C330 0 300 0 270 0C240 0 210 0 180 0C150 0 120 0 90 0C60 0 30 0 15 0L0 0Z"
        fill="#ff0066"></path>
    <path
        d="M0 98L15 101.5C30 105 60 112 90 110.5C120 109 150 99 180 88.7C210 78.3 240 67.7 270 75.5C300 83.3 330 109.7 360 116.8C390 124 420 112 450 112.8C480 113.7 510 127.3 540 124C570 120.7 600 100.3 630 99.2C660 98 690 116 720 112C750 108 780 82 810 70.5C840 59 870 62 885 63.5L900 65L900 0L885 0C870 0 840 0 810 0C780 0 750 0 720 0C690 0 660 0 630 0C600 0 570 0 540 0C510 0 480 0 450 0C420 0 390 0 360 0C330 0 300 0 270 0C240 0 210 0 180 0C150 0 120 0 90 0C60 0 30 0 15 0L0 0Z"
        fill="#fa175a"></path>
    <path
        d="M0 81L15 83.7C30 86.3 60 91.7 90 94.8C120 98 150 99 180 89.5C210 80 240 60 270 61.5C300 63 330 86 360 97.8C390 109.7 420 110.3 450 111.2C480 112 510 113 540 102.5C570 92 600 70 630 59.5C660 49 690 50 720 53.2C750 56.3 780 61.7 810 65.2C840 68.7 870 70.3 885 71.2L900 72L900 0L885 0C870 0 840 0 810 0C780 0 750 0 720 0C690 0 660 0 630 0C600 0 570 0 540 0C510 0 480 0 450 0C420 0 390 0 360 0C330 0 300 0 270 0C240 0 210 0 180 0C150 0 120 0 90 0C60 0 30 0 15 0L0 0Z"
        fill="#f3254f"></path>
    <path
        d="M0 81L15 72.3C30 63.7 60 46.3 90 45.8C120 45.3 150 61.7 180 70.8C210 80 240 82 270 74.5C300 67 330 50 360 44.3C390 38.7 420 44.3 450 53.2C480 62 510 74 540 72C570 70 600 54 630 45.7C660 37.3 690 36.7 720 45C750 53.3 780 70.7 810 78.5C840 86.3 870 84.7 885 83.8L900 83L900 0L885 0C870 0 840 0 810 0C780 0 750 0 720 0C690 0 660 0 630 0C600 0 570 0 540 0C510 0 480 0 450 0C420 0 390 0 360 0C330 0 300 0 270 0C240 0 210 0 180 0C150 0 120 0 90 0C60 0 30 0 15 0L0 0Z"
        fill="#ec2f45"></path>
    <path
        d="M0 29L15 28.7C30 28.3 60 27.7 90 30C120 32.3 150 37.7 180 43.3C210 49 240 55 270 53C300 51 330 41 360 37.3C390 33.7 420 36.3 450 38.8C480 41.3 510 43.7 540 43C570 42.3 600 38.7 630 42C660 45.3 690 55.7 720 54.2C750 52.7 780 39.3 810 34.5C840 29.7 870 33.3 885 35.2L900 37L900 0L885 0C870 0 840 0 810 0C780 0 750 0 720 0C690 0 660 0 630 0C600 0 570 0 540 0C510 0 480 0 450 0C420 0 390 0 360 0C330 0 300 0 270 0C240 0 210 0 180 0C150 0 120 0 90 0C60 0 30 0 15 0L0 0Z"
        fill="#e5383b"></path>
    <path
        d="M0 6L15 11C30 16 60 26 90 27.5C120 29 150 22 180 20C210 18 240 21 270 24.7C300 28.3 330 32.7 360 32.3C390 32 420 27 450 26C480 25 510 28 540 30.7C570 33.3 600 35.7 630 34.5C660 33.3 690 28.7 720 25.7C750 22.7 780 21.3 810 23.2C840 25 870 30 885 32.5L900 35L900 0L885 0C870 0 840 0 810 0C780 0 750 0 720 0C690 0 660 0 630 0C600 0 570 0 540 0C510 0 480 0 450 0C420 0 390 0 360 0C330 0 300 0 270 0C240 0 210 0 180 0C150 0 120 0 90 0C60 0 30 0 15 0L0 0Z"
        fill="#dd3f31"></path>
</svg>