<svg width="650" height="500" viewBox="0 0 600 500" fill="none" xmlns="http://www.w3.org/2000/svg">
    <path
        d="M218.75 562.5V437.5H156.25C113.021 437.5 76.1771 422.26 45.7187 391.781C15.2604 361.302 0.0208333 324.458 0 281.25C0 250 8.59374 221.229 25.7812 194.937C42.9687 168.646 66.1458 149.5 95.3125 137.5C100 98.4375 117.062 65.7604 146.5 39.4687C175.937 13.1771 210.437 0.020858 250 2.47035e-05C289.563 -0.0208086 324.073 13.1354 353.531 39.4687C382.99 65.8021 400.042 98.4791 404.688 137.5C433.854 149.479 457.031 168.625 474.219 194.937C491.406 221.25 500 250.021 500 281.25C500 324.479 484.76 361.333 454.281 391.812C423.802 422.291 386.958 437.521 343.75 437.5H281.25V562.5H437.5C446.354 562.5 453.781 565.5 459.781 571.5C465.781 577.5 468.771 584.916 468.75 593.75C468.729 602.583 465.729 610.01 459.75 616.031C453.771 622.052 446.354 625.041 437.5 625H62.5C53.6458 625 46.2292 622 40.25 616C34.2708 610 31.2708 602.583 31.25 593.75C31.2292 584.916 34.2292 577.5 40.25 571.5C46.2708 565.5 53.6875 562.5 62.5 562.5H218.75Z"
        fill="#003473" />
</svg>